<?xml version="1.0" standalone="no"?>
<!DOCTYPE svg PUBLIC "-//W3C//DTD SVG 20010904//EN"
 "http://www.w3.org/TR/2001/REC-SVG-20010904/DTD/svg10.dtd">
<svg version="1.0" xmlns="http://www.w3.org/2000/svg"
 width="918.000000pt" height="174.000000pt" viewBox="0 0 918.000000 174.000000"
 preserveAspectRatio="xMidYMid meet">

<g transform="translate(0.000000,174.000000) scale(0.100000,-0.100000)"
fill="#fff" stroke="none">
<path d="M810 1294 c-113 -79 -254 -178 -313 -220 -59 -41 -111 -82 -114 -91
-6 -16 15 -35 33 -29 6 3 142 96 303 208 160 112 297 207 305 212 9 6 25 0 52
-21 34 -26 362 -255 527 -367 54 -37 59 -39 74 -23 16 16 16 18 -2 36 -39 37
-620 434 -640 437 -12 2 -97 -52 -225 -142z"/>
<path d="M2010 965 l0 -405 45 0 45 0 0 155 c0 173 11 220 60 255 37 26 126
27 156 2 40 -32 44 -54 44 -236 l0 -176 50 0 50 0 0 159 c0 242 -19 303 -104
342 -80 36 -170 19 -226 -43 -17 -18 -30 -28 -30 -23 -1 6 0 92 0 193 l1 182
-46 0 -45 0 0 -405z"/>
<path d="M5950 965 l0 -405 45 0 45 0 0 155 c0 171 11 221 59 254 61 42 149
32 181 -22 18 -29 20 -51 20 -209 l0 -178 50 0 50 0 0 173 c0 183 -8 236 -37
276 -35 46 -70 64 -132 69 -70 5 -145 -25 -163 -64 -27 -58 -33 -24 -30 166
l3 190 -45 0 -46 0 0 -405z"/>
<path d="M7710 965 l0 -405 50 0 50 0 0 405 0 405 -50 0 -50 0 0 -405z"/>
<path d="M8370 965 l0 -405 44 0 44 0 3 168 c3 143 7 172 23 197 32 52 56 65
119 65 107 0 131 -53 126 -280 l-4 -145 48 -3 47 -3 0 178 c0 98 -5 195 -10
215 -22 79 -89 128 -175 128 -59 0 -104 -19 -137 -59 -15 -17 -30 -31 -35 -31
-4 0 -7 85 -5 190 l3 190 -45 0 -46 0 0 -405z"/>
<path d="M8010 1140 l0 -70 -60 0 -60 0 0 -40 0 -40 59 0 60 0 3 -191 3 -191
33 -29 c29 -26 40 -29 96 -29 90 0 96 4 96 56 0 41 -2 44 -19 34 -33 -17 -71
-11 -96 15 -24 24 -25 28 -25 180 l0 155 70 0 70 0 0 40 0 40 -70 0 -70 0 0
70 0 70 -45 0 -45 0 0 -70z"/>
<path d="M3295 1068 c-104 -39 -175 -143 -175 -258 0 -104 82 -215 181 -244
65 -20 82 -20 147 -1 36 11 60 26 81 53 l31 37 0 -71 c0 -133 -56 -194 -178
-194 -70 0 -112 14 -159 54 l-31 26 -31 -38 -30 -39 22 -20 c49 -45 88 -57
204 -61 102 -4 116 -2 159 19 62 31 119 103 133 169 6 29 11 161 11 310 l0
260 -50 0 -50 0 0 -40 c0 -45 -11 -52 -27 -17 -23 50 -164 83 -238 55z m185
-96 c46 -24 80 -90 80 -154 0 -70 -23 -119 -73 -152 -37 -24 -50 -27 -104 -24
-103 6 -155 58 -161 162 -4 54 -1 69 21 103 42 66 71 83 141 83 40 0 73 -6 96
-18z"/>
<path d="M3945 1064 c-177 -63 -224 -318 -84 -451 49 -46 97 -63 182 -63 80 0
152 27 196 74 l22 24 -35 27 -35 26 -20 -20 c-49 -49 -116 -66 -182 -46 -56
17 -119 88 -119 135 0 6 71 10 205 10 l205 0 0 55 c0 106 -68 206 -159 234
-51 15 -127 13 -176 -5z m159 -68 c41 -17 73 -61 78 -106 l3 -35 -149 -3 c-82
-1 -153 1 -158 6 -12 12 8 62 40 96 50 54 120 69 186 42z"/>
<path d="M4569 1066 c-88 -31 -142 -86 -174 -175 -20 -58 -19 -100 4 -161 44
-116 134 -180 250 -180 199 0 329 200 246 375 -59 121 -205 185 -326 141z
m172 -94 c15 -8 38 -33 53 -55 35 -55 36 -143 3 -202 -43 -78 -156 -106 -235
-59 -95 55 -108 217 -24 297 47 45 143 54 203 19z"/>
<path d="M5224 1060 c-22 -11 -47 -32 -54 -45 -22 -41 -41 -32 -34 15 l7 40
-47 0 -46 0 0 -255 0 -255 45 0 45 0 0 148 c0 167 10 214 51 253 54 50 155 43
189 -14 18 -29 20 -51 20 -209 l0 -178 50 0 50 0 0 173 c0 195 -12 256 -57
299 -55 52 -146 64 -219 28z"/>
<path d="M6683 1064 c-47 -17 -113 -76 -140 -126 -13 -25 -18 -55 -18 -123 0
-106 19 -151 87 -209 50 -43 91 -56 178 -56 73 0 148 29 188 72 l23 25 -31 27
-31 26 -38 -30 c-51 -42 -99 -54 -153 -39 -73 19 -111 56 -132 127 l-7 22 211
0 212 0 -7 58 c-14 116 -78 208 -162 231 -52 15 -130 12 -180 -5z m178 -77
c36 -24 68 -77 69 -114 0 -23 -1 -23 -155 -23 -150 0 -155 1 -155 20 0 45 50
109 100 129 45 18 105 13 141 -12z"/>
<path d="M7270 1071 c-47 -15 -110 -51 -110 -64 0 -8 11 -24 25 -37 23 -21 26
-22 42 -8 79 69 201 60 237 -17 33 -68 29 -72 -91 -77 -115 -5 -153 -17 -206
-66 -73 -69 -48 -190 50 -241 12 -6 50 -11 84 -11 68 0 138 31 160 71 14 28
24 16 20 -27 -3 -34 -2 -34 41 -34 l43 0 -2 105 c-8 330 -6 308 -32 342 -45
60 -172 91 -261 64z m206 -313 c-13 -96 -60 -138 -154 -138 -82 0 -125 50 -98
115 22 51 77 72 195 74 l64 1 -7 -52z"/>
<path d="M2556 1048 c4 -13 25 -63 46 -113 22 -49 55 -129 74 -176 18 -48 45
-113 59 -145 l25 -57 -21 -58 c-12 -33 -32 -71 -46 -85 -20 -22 -30 -25 -73
-22 -52 3 -60 -4 -60 -59 0 -22 4 -23 81 -23 80 0 82 1 113 33 22 23 53 91
105 223 41 104 101 255 133 337 32 81 58 152 58 158 0 6 -19 9 -47 7 l-48 -3
-48 -135 c-27 -74 -57 -162 -66 -195 -22 -74 -42 -82 -58 -23 -6 24 -18 61
-27 83 -8 22 -35 92 -59 155 l-43 115 -53 3 c-51 3 -52 2 -45 -20z"/>
<path d="M930 1006 c-7 -10 -10 -45 -8 -105 l3 -91 -96 0 c-60 0 -99 -4 -107
-12 -8 -8 -12 -49 -12 -119 0 -134 0 -134 120 -127 l90 5 0 -93 c0 -122 2
-124 130 -124 128 0 130 2 130 126 l0 94 99 0 c81 0 100 3 105 16 11 30 7 209
-6 222 -8 8 -47 12 -107 12 l-96 0 3 84 c5 125 4 126 -127 126 -82 0 -111 -3
-121 -14z m190 -139 c0 -59 4 -97 12 -105 8 -8 46 -12 105 -12 l93 0 0 -70 0
-69 -102 -3 -103 -3 -3 -102 -3 -103 -69 0 -70 0 0 89 c0 49 -3 96 -6 105 -5
13 -24 16 -105 16 l-99 0 0 70 0 70 93 0 c59 0 97 4 105 12 8 8 12 46 12 105
l0 93 70 0 70 0 0 -93z"/>
</g>
</svg>
